<svg width="136" height="32" viewBox="0 0 136 32" xmlns="http://www.w3.org/2000/svg"><g fill="#FC6722" fill-rule="evenodd"><path d="M113.42 8.586s-4.055 6.361-3.186 11.76c.869 5.399 7.012 4.406 11.728 3.351 4.716-1.055 11.915-4.22 13.156-7.074 1.241-2.855.683-2.916.31-3.475-.372-.559-9.805 2.048-12.72 2.42-2.918.372-7.076 1.49-7.447 1.055-.373-.434 2.73-4.778 2.11-7.074-.622-2.296-.698-3.458-1.567-3.645-.868-.186-1.788 1.707-2.384 2.682M106.146 4.241c.5 0 2.438 2.139 1.636 8.219-.801 6.08-1.804 8.753-2.606 9.521-.801.769-2.171-.167-2.471-1.336-.301-1.17 1.335-9.087 1.636-10.323.301-1.236.936-5.112 1.303-5.647.368-.534.502-.434.502-.434M53.796 24.752c.807.125 3.194-4.282 3.566-7.57.373-3.29.558-3.91.931-3.848.372.062 3.475 5.461 6.827 5.337 3.35-.124 6.763-4.406 7.57-4.593.807-.185-.559 5.772 1.8 6.455 2.358.682 2.544-4.841 2.482-6.02-.062-1.18.372-5.895-1.118-7.695-1.489-1.8-2.37-3.018-2.544-2.606-.543 1.285-4.666 6.575-8.521 7.078-2.344.306-3.534-2.262-4.2-3.54-.567-1.089-2.11-3.725-2.854-4.22-.745-.497-1.49 2.543-2.048 3.97-.559 1.428-3.661 7.758-3.972 11.915-.31 4.158 1.275 5.213 2.081 5.337"/><path d="M15.723 22.58c1.551-.496 8.377-.496 8.998-.372.62.124 2.482 5.461 10.736 7.82 8.253 2.357 12.073 1.75 15.316.947 1.096-.273 2.393-1.508 3.56-1.985 1.131-.463 3.376-.649 3.235-1.263-.071-.304-.77-.188-2.09-.173-2.513.03-6.926-.835-10.9-1.623-4.322-.857-11.92-4.549-11.852-4.778.07-.238 8.12-.508 9.743-.559 1.839-.056 3.036.152 4.09-.158 1.056-.31 1.185-1.703.936-3.317-.248-1.613-1.782-4.012-2.606-4.095-2.523-.256-5.888.462-8.191.993-1.969.453-8.132 1.014-8.192.868-.065-.159 3.556-2.72 6.392-3.847 3.22-1.28 9.556-2.482 11.79-2.668 2.235-.186 3.736-.353 4.096-.993.478-.847-.993-4.096-3.35-6.082C45.074-.69 39.98.9 35.828 2.164c-4.147 1.263-8.9 4.046-10.185 5.73-2.384 3.123-2.413 7.24-2.785 7.736-.372.497-3.227.93-5.399 1.427s-8.485 1.953-14.08 3.25c0 0-2.963.62-3.143.92-.18.301 7.16-1.31 8.169-1.5 1.258-.24 6.187-1.262 6.487-1.082.3.18-4.145 1.261-5.046 1.382-.9.12-3.964.78-4.144 1.02-.18.241 5.201-.844 5.285-.613.108.295-3.447.978-3.904 1.395-.383.35 2.379-.236 2.98-.176.6.06 2.563-.463 2.585-.253.027.274-2.572 1.03-2.727 1.288-.155.258.543.103 1.111 0 .568-.104 1.834-.414 2.066-.336.233.077-.723.361-.516.49.207.13.8.104 1.317 0 .517-.103 1.823-.261 1.823-.261M102.303 11.491c-.367.1-3.608.836-5.58.903-1.97.066-2.872.367-3.24.066-.367-.3-2.472-5.412-2.94-6.481-.467-1.07-1.837-2.573-2.472-3.04-.635-.468-.969.367-.869 1.102.1.735-.267 2.305-.6 2.873-.335.568-3.242 4.043-3.977 4.678-.734.634-.935 1.302-1.269 1.37-.335.066-.969.033-1.27.2-.3.167-.697 1.985-.931 2.888-.234.901-1.312 3.949-.61 5.418.7 1.47 2.263-.89 2.945-1.691.568-.669 1.169-1.57 2.37-1.37 1.204.2 5.08.635 5.981.635.902 0 2.139-.368 2.206-.034.067.335.768 3.107.868 3.642.1.534.434.5.434.5.569-.133 1.404-.167 1.671-2.405.268-2.238-.133-2.439.168-2.706.3-.267 3.996-1.02 4.576-1.403 1.118-.74 2.004-3.174 2.406-3.942.4-.768.5-1.303.133-1.203zm-12.963 1.07c-.233.066-1.057.122-1.202.033-.144-.09-.2-1.37.133-1.504.334-.134.736.275.903.501.265.363.401.902.166.97z"/></g></svg>