<svg width="256" height="144" viewBox="0 0 256 144" fill="none" xmlns="http://www.w3.org/2000/svg"><path d="M91.06 66.701a1.484 1.484 0 01-.743-.193l-12.932-7.442a1.49 1.49 0 01.074-2.634l17.437-8.395-9.29-16.372a1.49 1.49 0 011.486-2.218l20.35 2.784 2.215-19.766a1.487 1.487 0 012.512-.908l14.686 14.095 14.33-15.762a1.486 1.486 0 012.557.744l3.775 20.986 19.934-4.122c.552-.111 1.119.1 1.465.543a1.49 1.49 0 01.17 1.555l-8.681 17.965 16.441 7.516a1.49 1.49 0 01.089 2.664l-13.051 7.01a1.486 1.486 0 01-2.015-.602 1.49 1.49 0 01.603-2.017l10.405-5.596-15.147-6.862a1.487 1.487 0 01-.714-1.994l8.146-16.7-18.536 3.81a1.486 1.486 0 01-1.769-1.19l-3.479-19.513L128 28.747a1.488 1.488 0 01-2.141.075l-13.616-13.068-1.992 18.382a1.489 1.489 0 01-1.679 1.31l-18.879-2.59 8.577 15.107a1.49 1.49 0 01-.654 2.084L81.265 57.89l10.48 6.028A1.49 1.49 0 0191 66.701h.06z" fill="#FC6723"/><path d="M231.341 43.617a29.148 29.148 0 00-21.242-8.93 23.91 23.91 0 00-19.176 10.3 29.008 29.008 0 00-4.37 25.525 24.067 24.067 0 00-8.191 8.022 18.94 18.94 0 00-2.111 14.988l-1.902-1.057c-6.719-3.75-17.66-9.868-21.703-14.452l.193-.149a5.524 5.524 0 00-1.486-9.525 5.514 5.514 0 00-2.735-8.067 5.529 5.529 0 00.39-4.69 5.52 5.52 0 00-3.363-3.288 5.542 5.542 0 00-1.249-6.784 5.523 5.523 0 00-6.882-.3l-2.973 2.202a8.816 8.816 0 00-5.649-3.691c-4.816-.774-12.353 1.994-13.2 2.322a2.87 2.87 0 00-1.041.7 5.76 5.76 0 00-3.493-.909 6.22 6.22 0 00-5.039 6.579c.094.609.3 1.194.609 1.727h-.178a6.059 6.059 0 00-3.597 7.248c.173.446.414.862.713 1.235a5.674 5.674 0 00-2.244 7.07c.081.144.17.283.267.417-1.724 1.488-3.077 3.542-2.14 5.7a6.246 6.246 0 003.181 2.873c-4.46 4.465-14.702 10.27-21.138 13.856l-1.903 1.057a18.938 18.938 0 00-2.11-14.988 24.066 24.066 0 00-8.132-8.096 29.008 29.008 0 00-4.355-25.57 23.91 23.91 0 00-19.19-10.3 29.146 29.146 0 00-21.242 8.93 26.023 26.023 0 00-6.467 20.376c.283 3.349 6.333 27.014 14.999 38.98 8.666 11.967 32.703 31.688 43.108 31.688h.178c10.005-.223 38.649-28.636 46.364-41.987h.624a39.74 39.74 0 004.162.297h.833a13.482 13.482 0 004.147-1.16c6.912 12.963 36.597 42.567 46.824 42.805h.179c10.405 0 34.442-19.676 43.108-31.687 8.666-12.011 14.716-35.617 14.999-38.98a26.03 26.03 0 00-6.377-20.287zm-102.925 3.08a5.69 5.69 0 013.404 1.98c-2.333 1.489-6.421 3.513-9.008 3.334a8.633 8.633 0 01-5.812-3.23c2.72-.997 8.235-2.59 11.416-2.083zm-18.685 3.335a2.57 2.57 0 011.71-1.176h.208a4.99 4.99 0 012.779 1.488l.149.134a10.217 10.217 0 003.805 3.26l5.144 4.465a2.059 2.059 0 01.356 2.887 2.052 2.052 0 01-2.883.357l-9.648-6.801-.208-.134c-.565-.387-1.917-1.295-2.096-2.412a2.638 2.638 0 01.684-2.068zm-3.716 8.409a2.44 2.44 0 011.382-1.414c.173-.025.348-.025.521 0a5.553 5.553 0 012.497.893l2.259 1.295 6.585 4.644a5.043 5.043 0 002.082.848 1.91 1.91 0 01-.28 1.805 1.901 1.901 0 01-1.668.74 4.537 4.537 0 00-.609-.327l-4.162-1.772-6.214-2.798-.223-.089c-.609-.253-2.036-.863-2.408-1.875a2.5 2.5 0 01.238-1.95zm12.605 13.232a1.634 1.634 0 01-2.021 1.056l-10.019-2.976h-.208c-.565-.164-1.903-.521-2.334-1.355a2.815 2.815 0 011.055-3.08c.231-.097.479-.142.729-.135.7.048 1.385.224 2.021.521h.149l5.396 2.188 4.207 1.86c.222.092.45.166.683.224.431.459.563 1.122.342 1.711v-.014zm-16.351 2.976c-.327-.744.847-1.95 1.828-2.634.482.21.979.384 1.487.52l5.098 1.49a9.494 9.494 0 01-2.854 2.574 4.451 4.451 0 01-2.125-.134 9.444 9.444 0 01-1.13-.357 4.25 4.25 0 01-2.319-1.429l.015-.03zm26.058 15.36a30.36 30.36 0 01-4.459-.268l-1.636-.163h-.178a1.485 1.485 0 00-.461 0l-.148.089a1.44 1.44 0 00-.327.194 1.466 1.466 0 00-.268.327l-.089.104c-6.942 13.113-35.87 41.168-44.297 41.362h-.134c-8.681 0-31.945-18.337-40.715-30.467-8.206-11.326-14.196-34.381-14.449-37.477a23.119 23.119 0 015.753-18.084 26.13 26.13 0 0119.057-7.948 20.982 20.982 0 0116.782 9.094 26.028 26.028 0 014.058 22.326 19.453 19.453 0 00-6.748-1.757 1.488 1.488 0 00-1.4 2.169c.243.473.72.782 1.251.808 4.668.238 11.594 3.75 15.236 9.764a16.732 16.732 0 01.506 16.223 1.49 1.49 0 00.405 1.767c.52.429 1.262.455 1.81.064.773-.55 2.854-1.712 5.277-3.066 7.506-4.197 18.655-10.42 22.847-15.524.408.065.821.1 1.234.104.653.022 1.302-.1 1.903-.357a12.446 12.446 0 004.518-4.316l2.096.625a4.592 4.592 0 005.016-1.676 4.6 4.6 0 00.692-4.084 4.892 4.892 0 002.483-2.337 4.83 4.83 0 00.357-3.215 5.021 5.021 0 002.215-7.085l12.754-9.6a2.568 2.568 0 012.659-.396 2.575 2.575 0 01.314 4.579l-4.237 3.066a1.489 1.489 0 101.739 2.411l.58-.417h.089l1.814-1.294a2.568 2.568 0 012.659-.397 2.576 2.576 0 01.314 4.58l-1.383.996a5.54 5.54 0 00-.654.402l-1.605 1.22-.61.432a1.495 1.495 0 00.256 2.574 1.49 1.49 0 001.484-.148l.475-.342.134-.105 2.155-1.488a2.58 2.58 0 013.882 2.221 2.584 2.584 0 01-1.28 2.244l-1.992 1.489-.253.163-.832.655-1.085.834a1.489 1.489 0 00.03 1.937c.486.55 1.3.662 1.917.266l.104-.075h.119l.907-.714 1.1-.834a2.567 2.567 0 012.725.012 2.576 2.576 0 011.184 2.459 2.562 2.562 0 01-.951 1.726l-4.088 3.26c-3.85 3.498-14.479 10.85-18.611 11.088zm106.522-26.3c-.253 3.097-6.258 26.166-14.449 37.478-8.83 12.19-32.286 30.675-40.849 30.452-8.562-.223-37.162-28.056-44.193-41.109a72.494 72.494 0 0013.379-9.391l1.486-1.22c4.385 5.045 15.222 11.102 22.58 15.21 2.423 1.355 4.459 2.516 5.277 3.066.548.392 1.29.365 1.809-.064a1.49 1.49 0 00.406-1.766 16.73 16.73 0 01.505-16.224c3.642-5.953 10.569-9.525 15.237-9.763a1.49 1.49 0 00-.149-2.977c-2.332.176-4.613.77-6.734 1.756a26.014 26.014 0 014.058-22.325 20.983 20.983 0 0116.783-9.094 26.13 26.13 0 0119.086 7.888 23.118 23.118 0 015.753 18.084h.015z" fill="silver"/><path d="M207.141 80.022a1.487 1.487 0 00-1.294 1.667c.64 5.031-3.121 14.17-10.242 16.477a1.487 1.487 0 00-.571 2.55c.409.36.982.466 1.493.277 8.666-2.798 13.051-13.529 12.278-19.69a1.486 1.486 0 00-1.664-1.28zM59.547 73.965a1.492 1.492 0 00-1.488 2.116c.224.485.69.813 1.22.86a10.536 10.536 0 016.853 3.99 1.486 1.486 0 102.408-1.668 13.495 13.495 0 00-8.993-5.298z" fill="#6D6D6D"/></svg>