<svg width="16" height="10" viewBox="0 0 16 10" xmlns="http://www.w3.org/2000/svg"><g fill="none"><path fill="#EE1C25" d="M0 0h16v10H0z"/><path fill="#0B4EA2" d="M0 0h16v6.667H0z"/><path fill="#FFF" d="M0 0h16v3.333H0z"/><path d="M5.27 7.725c.897-.432 2.18-1.289 2.18-2.984s-.082-2.466-.082-2.466H3.173s-.08.77-.08 2.466c0 1.695 1.282 2.552 2.178 2.984z" fill="#FFF"/><path d="M5.27 7.5c.823-.396 2-1.182 2-2.738 0-1.555-.075-2.262-.075-2.262H3.347s-.075.707-.075 2.262c0 1.556 1.177 2.342 1.999 2.738z" fill="#EE1C25"/><path d="M5.447 4.355v-.54c.203-.002.495.008.826.119 0 0-.01-.139-.01-.3 0-.161.01-.3.01-.3-.33.11-.622.12-.825.119.01-.342.11-.772.11-.772s-.205.016-.287.016c-.082 0-.287-.016-.287-.016s.1.43.11.772a2.469 2.469 0 0 1-.825-.119 4.57 4.57 0 0 0 0 .6c.33-.11.623-.12.826-.119v.54c-.223.003-.657.012-1.044-.117 0 0 .01.138.01.3 0 .16-.01.299-.01.299.355-.119.793-.121 1.044-.118v.859h.352v-.859c.25-.003.689 0 1.044.118 0 0-.01-.138-.01-.3 0-.161.01-.3.01-.3-.387.13-.822.121-1.044.118z" fill="#FFF"/><path d="M5.27 5.485c.415 0 .637.574.637.574s.123-.272.461-.272c.229 0 .397.203.504.392-.416.661-1.08 1.07-1.601 1.321-.522-.251-1.185-.66-1.601-1.321.107-.189.275-.392.504-.392.338 0 .46.272.46.272s.223-.574.637-.574z" fill="#0B4EA2"/></g></svg>